PathFileType	4	(X/Y/Z)	RBDS027\RBDS027runT45.trc
DataRate	CameraRate	NumFrames	NumMarkers	Units	OrigDataRate	OrigDataStartFrame	OrigNumFrames
150.000000	150.000000	4	33	mm	150.000000	1687	4500
Frame#	Time	L.ASIS			L.Heel.Bottom			L.Heel.Lateral			L.Heel.Top			L.Iliac.Crest			L.MT1			L.MT5			L.PSIS			L.Shank.Bottom.Lateral			L.Shank.Bottom.Medial			L.Shank.Top.Lateral			L.Shank.Top.Medial			L.Thigh.Bottom.Lateral			L.Thigh.Bottom.Medial			L.Thigh.Top.Lateral			L.Thigh.Top.Medial			R.ASIS			R.ASY			R.Heel.Bottom			R.Heel.Lateral			R.Heel.Top			R.Iliac.Crest			R.MT1			R.MT5			R.PSIS			R.Shank.Bottom.Lateral			R.Shank.Bottom.Medial			R.Shank.Top.Lateral			R.Shank.Top.Medial			R.Thigh.Bottom.Lateral			R.Thigh.Bottom.Medial			R.Thigh.Top.Lateral			R.Thigh.Top.Medial			
		X1	Y1	Z1	X2	Y2	Z2	X3	Y3	Z3	X4	Y4	Z4	X5	Y5	Z5	X6	Y6	Z6	X7	Y7	Z7	X8	Y8	Z8	X9	Y9	Z9	X10	Y10	Z10	X11	Y11	Z11	X12	Y12	Z12	X13	Y13	Z13	X14	Y14	Z14	X15	Y15	Z15	X16	Y16	Z16	X17	Y17	Z17	X18	Y18	Z18	X19	Y19	Z19	X20	Y20	Z20	X21	Y21	Z21	X22	Y22	Z22	X23	Y23	Z23	X24	Y24	Z24	X25	Y25	Z25	X26	Y26	Z26	X27	Y27	Z27	X28	Y28	Z28	X29	Y29	Z29	X30	Y30	Z30	X31	Y31	Z31	X32	Y32	Z32	X33	Y33	Z33	

1688	11.24666666666667	2142.815125204606	802.4072197039831	844.734149719538	1797.316440909333	604.4578487041869	914.0327898865127	1786.13353376304	569.4141159233815	868.4565923927335	1823.306679096667	561.5900213792404	910.8248142316511	2106.802428630645	884.1610542044097	806.8459156745989	1661.473863793649	431.715038855436	956.5301027996468	1673.467744002818	467.0688309773119	850.2984398567984	1977.364662810706	852.9872853397987	904.7381718741289	1847.671000996231	493.5571617440138	845.9159447830674	1862.018284002836	523.4726870590212	891.3280676336473	1926.030979109462	481.7328595250098	831.0312584158712	1940.647295557065	508.047131884825	875.3773782055895	2088.215199060077	454.0294899560043	785.4554514188511	2049.838647880606	452.2167662544995	844.2076011034665	2059.550941953456	554.0660003857971	778.3046985362121	2015.642404039813	546.1354800899802	829.1300757880202	2114.666058917046	840.1496676473914	1107.769336653575	2071.140228316189	70.16320887351799	1021.124030070932	1888.707972443703	34.83820634387175	1005.832285518706	1917.55367386715	54.2777684181071	1048.881020668519	1905.823803234258	77.18892095283265	1000.985631545072	2051.004819294239	897.820780512629	1120.640976409024	2108.04737203056	20.57021271590735	979.3428959826374	2061.24235386856	35.29871549727007	1092.330455326708	1967.596336105767	862.8995961736025	997.9142125613162	1994.398076724487	139.5369469974339	1058.387109224486	1968.641162941628	166.9611909232117	1023.935651317874	2029.777331941293	211.5288835737312	1087.369089143292	2001.53045794175	236.5413545377851	1049.470809615228	2142.532853062538	476.4461160423011	1126.205337240579	2088.262413020932	452.3280053658114	1083.576373930436	2085.456524731268	569.9229160436659	1140.226183326496	2033.701201017406	546.7572472651671	1100.338201434786	
1689	11.25333333333333	2140.478624343789	804.1297350067867	843.9026265718572	1804.689971493395	594.5523107033001	910.4364017199657	1796.8286215375	558.233888841374	865.3401073644756	1833.46690637097	553.5491213262356	908.5525838432095	2101.532095847278	885.8857628429143	806.5003255321263	1679.911792580003	414.2483827491923	953.5576794765458	1691.763887515363	448.5341636433126	846.946586153791	1975.843119868335	854.8733622723674	906.4350682440289	1863.271663899396	485.1372011948612	844.1093975467047	1875.860741084858	516.2452386226644	889.1458398174523	1942.078856699887	476.6894932252204	829.7422511500062	1955.081463638175	504.2058759019942	873.777473191395	2103.617136515196	457.3544964796829	785.2059725284892	2066.215458647519	452.8710890266094	844.0270150779535	2068.898421077262	554.8290750725907	778.2688927797893	2025.397280171481	544.08798701221	828.9584313709377	2114.876293196602	839.5995105336272	1107.803815226991	2041.161138228671	71.10439081998993	1021.556743845847	1858.150609282375	37.07163523865768	1005.850333290281	1887.279739083477	56.39224719719536	1048.912954839527	1875.290819946854	79.44419971000188	1001.138438564282	2051.532414229272	898.398483355771	1121.523155395077	2077.433574659107	20.90177282452609	979.6134310456243	2030.77254334942	35.75747417322135	1092.187038152757	1967.285033879906	865.024986125885	999.5265311040006	1966.823209045635	141.3857227900526	1058.274770745673	1941.767738850493	169.7458473138101	1024.014569723125	2004.677478734453	212.0145209697471	1087.167682688601	1977.150527829937	238.0549214313746	1049.406459429794	2127.873716162985	473.1485945321393	1125.408555886785	2072.145599585599	451.4025956650693	1083.513486080738	2075.255740565325	569.2066246099173	1139.811494205779	2022.144109447442	548.428848690455	1100.428309173771	
1690	11.26	2138.45807502153	806.5722550199167	842.8461678560396	1810.408638176955	582.9456592469696	906.8580710174706	1806.175900803524	545.5932723086109	862.2999322980256	1842.152250616001	544.2844058132722	906.2747431583682	2096.50412207523	888.1856509558893	806.1114770137584	1698.940190631262	394.9614327229717	950.867655965401	1710.192357201447	428.2941708811084	843.8660687016074	1974.692151330971	857.2248992531621	908.1736939399186	1877.886989473893	475.9327128548525	842.4550249777133	1888.461478269103	508.4818379999796	886.8753436993395	1956.966884521485	471.565944364842	828.3433011648461	1968.128700341466	500.5260853503095	871.8957336172909	2118.851790390132	462.1131080186074	785.2800223867073	2082.357523944436	454.7885654805017	844.0992484787588	2078.142884372288	556.9843485722198	778.5205864841677	2035.237093779217	543.5276040420804	829.1548673551573	2115.671831144695	839.4155721989565	1107.491315124108	2011.484109262617	71.95370661998957	1022.053879946323	1827.63152390994	40.20710914962255	1005.870968370924	1857.128197513203	59.14734336646331	1048.998272148561	1845.015654143435	82.55473632678078	1001.372966666236	2053.207986168095	899.9134559878856	1122.292101681443	2046.766123980287	20.92866225038636	979.8885339486109	2000.358084880883	36.00802945941753	1092.071742021305	1967.385563698833	867.5765057953502	1001.259704618328	1939.249763983711	143.7169122686022	1058.167316456044	1914.787380454059	172.9119225343896	1024.112387070184	1979.283067123287	213.0436763378718	1086.960691881407	1952.392744673289	240.0009231771334	1049.33972087258	2112.482090035807	470.6798732900917	1124.470937724712	2055.233388829015	451.5844802313874	1083.432060909232	2064.767918212355	569.2504946806999	1139.29490075324	2010.289393866021	551.1351937045164	1100.479316846931	
1691	11.26666666666667	2136.823096672943	809.6948517994331	841.6325681908918	1814.804940716194	569.4655839993819	903.5070533559142	1814.454853525169	531.4594348530984	859.4786241335753	1849.59714542725	533.6425562377042	904.1166801853748	2091.988691810364	891.018917004945	805.7043082477238	1718.810429054902	374.0351599872583	948.4186470812515	1729.016492144371	406.646526804483	841.055369407688	1973.933846257752	859.9761759918082	909.8579622179954	1891.653752557723	465.9715736247209	841.0021013178493	1899.94421383214	500.0861565341504	884.6159499585872	1970.751586222739	466.316138283995	826.9050115525156	1979.832318815789	496.8435378991259	869.8482453497116	2133.746105749056	468.1574083780033	785.6511038677264	2098.018640513015	457.8955787534023	844.3859997988376	2087.208561364003	560.4670136874935	778.992739316092	2045.042541136863	544.4531629605158	829.643560489407	2116.995408605825	839.6297536863241	1106.874971114697	1982.197646174681	72.69053879907734	1022.598417146593	1797.361580205492	44.49406781124406	1005.889064118146	1827.296317605886	62.72614232724791	1049.1368552451	1815.265199624093	86.71258682868378	1001.698203725005	2055.937322723512	902.191443981529	1122.892844336003	2016.018274947277	20.67662383956759	980.1328722576019	1970.03828112154	36.11498612487423	1091.988997643551	1967.888997837805	870.4558386177722	1003.007909473311	1911.878865229961	146.701511384782	1058.100342842341	1887.917624494788	176.6265567715798	1024.243314736692	1953.814288479453	214.8272299832237	1086.791559815544	1927.482512022446	242.5842225265185	1049.298626719233	2096.569265677757	469.22969221772	1123.467265700196	2037.842480002194	453.0656738078915	1083.310997106333	2054.158284894823	570.150469216857	1138.719770321545	1998.388834042128	554.966874476136	1100.464816347376	
